<svg xmlns="http://www.w3.org/2000/svg" width="48" height="48"><path d="M-958.715-2112.956c-30.267 0-54.633 24.367-54.633 54.633v983.392c0 30.267 24.366 54.633 54.633 54.633h764.86c30.267 0 54.633-24.366 54.633-54.633v-710.227l-327.797-327.798z" style="opacity:.2;stroke-width:27.3164" transform="matrix(.0366 0 0 .0366 45.097 82.35)"/><path d="M-958.715-2140.272c-30.267 0-54.633 24.366-54.633 54.633v983.392c0 30.266 24.366 54.633 54.633 54.633h764.86c30.267 0 54.633-24.367 54.633-54.633v-710.228l-273.164-54.633-54.633-273.164z" style="fill:#e4e4e4;stroke-width:27.3164" transform="matrix(.0366 0 0 .0366 45.097 82.35)"/><path d="m-139.222-1785.158-327.797-327.798v273.165c0 30.266 24.366 54.633 54.633 54.633z" style="opacity:.2;stroke-width:27.3164" transform="matrix(.0366 0 0 .0366 45.097 82.35)"/><path d="m-139.222-1812.475-327.797-327.797v273.164c0 30.267 24.366 54.633 54.633 54.633z" style="fill:#fafafa;stroke-width:27.3164" transform="matrix(.0366 0 0 .0366 45.097 82.35)"/><path d="M-958.715-2140.272c-30.267 0-54.633 24.366-54.633 54.633v27.316c0-30.266 24.366-54.633 54.633-54.633h491.696v-27.316z" style="opacity:.2;fill:#fff;stroke-width:27.3164" transform="matrix(.0366 0 0 .0366 45.097 82.35)"/><path d="M359.82 554.87c-13.2 3.83-26.27 8.23-39.16 13a654 654 0 0 0-80.1 36q-29.64 15.74-57.89 33.82C161.52 651.23 141 665.57 121.19 681q-13.9 10.9-26.84 22.94c-4.55 4.22-9.16 8.32-14.64 11.37a36.5 36.5 0 0 1-13.17 4.59c-5.4.65-10.25-1-13.3-5.89a28.8 28.8 0 0 1-2.94-6.59A72.9 72.9 0 0 1 47 686a89.3 89.3 0 0 1 5.56-31.5 195.6 195.6 0 0 1 19.23-37.92 356 356 0 0 1 32.4-42.48c9.9-11.25 20.2-22.09 31.05-32.4 10.64-10.09 21.67-19.72 33-29 21.17-17.37 43.64-32.93 66.44-48 11.09-7.33 22.1-14.77 33.13-22.19.84-.56 1.58-1.27 3-2.44a112 112 0 0 0-14.92 3A277.3 277.3 0 0 0 205.1 462c-8.82 4.31-17.53 8.84-26.16 13.5-5.45 2.93-10.61 6.38-16 9.45a159 159 0 0 1-32.64 14.4 12.83 12.83 0 0 1-15.77-7.07 32.25 32.25 0 0 1-2.1-18.18 86.4 86.4 0 0 1 7.49-22.72 213.5 213.5 0 0 1 26.85-41.88 285 285 0 0 1 45.68-44.5c15-11.78 30.6-22.59 46.53-33.05q19.3-12.72 38.65-25.35c5.06-3.3 10.2-6.49 15.3-9.78a20 20 0 0 0 2.45-1.67l1.43-.95c-.13-.14-.69 0-.83-.08-.59.21-1 .24-1.61.43a31 31 0 0 0-3.06.79c-6.64 2-13.23 4.23-19.86 6.26a465 465 0 0 0-46.18 17.4c-7.2 3.07-14.4 6.3-21.64 9.25a136 136 0 0 1-15 5.19c-8 2.18-14.65-.9-18-8.17a28.45 28.45 0 0 1-2.13-16 99.3 99.3 0 0 1 12-34.92c6.5-11.79 13.89-23 21.52-34.1 3.23-4.72 7-9.09 10.67-13.5 14.85-17.81 31.32-34 48.15-49.9 13.68-13 29.19-23.4 45.3-33a582 582 0 0 1 59.4-31 738 738 0 0 1 89-33.3c16.6-5 33.3-9.64 50.22-13.61 14.53-3.4 29.14-6.51 43.89-8.83 9-1.4 17.87-2.93 26.82-4.21q14.13-2 28.29-3.6c7.64-.9 15.3-1.43 23-2.09 9.77-.84 19.54-1.67 29.33-2.43q7.89-.62 15.82-1c8.9-.44 17.82-.59 26.7-1.24 14-1 28.08-.78 42.13-.84 5.89 0 11.79.07 17.67.38 5.4.29 10.8.9 16.2 1.46 5.24.56 10.49 1.12 15.7 2 18.34 3 36.5 6.55 53.9 13.38a105.4 105.4 0 0 1 31.93 19.48c6.3 5.61 10.18 12.6 10.62 21.3a44.6 44.6 0 0 1-2.45 17.81 34.5 34.5 0 0 1-9.9 14.4c-7.65 6.75-16.39 11.84-25.2 16.77-12.81 7.14-26.1 13.26-39.36 19.51-16.12 7.61-32.07 15.53-47.56 24.3a77.4 77.4 0 0 0-17.6 13.46A106.6 106.6 0 0 0 731.44 222c-3.29 5.1-4.89 10.7-5.91 16.51-.63 3.6.3 7.2 1.56 10.64 2.85 7.76 8 13.78 14.55 18.65a76.3 76.3 0 0 0 15.69 9 265.4 265.4 0 0 0 46.15 14.47c10.91 2.43 21.76 5 32.2 9a160.5 160.5 0 0 1 29.56 14.67 73 73 0 0 1 8.5 6.76c2.94 2.6 5.7 5.4 8.52 8.1a35.72 35.72 0 0 1 10.5 20.63 38.6 38.6 0 0 1 0 9.49 58 58 0 0 1-3 13.69 119.5 119.5 0 0 1-14.25 28.72c-5.1 7.35-10.32 14.54-16.61 20.91-3.49 3.55-7.11 7-10.9 10.23a248.8 248.8 0 0 1-44.25 29.81C776.42 478 747.57 489 717.9 498.06c-18.48 5.63-37.23 10.25-56.13 14.17-10.92 2.28-21.95 4-33 5.83q-14.73 2.38-29.55 4.26c-7 .9-14.11 1.42-21.17 2.15-2.55.26-5.09.62-7.64.9-2-4.7-4.13-9.39-6.12-14.1q-5.1-12.11-10.12-24.24c-.8-1.94-1.65-3.89-1.52-6.09.18-2.86.23-5.74.47-8.59.45-5.26 1-10.51 1.52-15.77.69-7.2 1.33-14.4 2-21.6a6.2 6.2 0 0 1 .5-1.5 4.7 4.7 0 0 1 1-.53c10.8-1.92 21.66-3.92 32.53-5.71 8.74-1.44 8.77-1.32 16.4-5.81q16-9.42 32-18.9c.5-.31.9-.72 1.6-1.22-1.46-2.88-3.49-5.32-5.08-8s-4-4.93-4.77-8.2a14 14 0 0 1 1.8-.65c4.43-.9 8.87-1.75 13.33-2.52 6.84-1.2 13.68-2.36 20.53-3.42a5.3 5.3 0 0 0 3.73-2.21c1.43-2 3-3.75 4.5-5.69a12.2 12.2 0 0 0 1.09-2.38l4.08-5.26a4.24 4.24 0 0 0 3.24-5.21q-.25-7.44-.43-14.92c-.07-3.17 0-6.34-.15-9.51a10 10 0 0 1 1.26-5.63c1.26-2.23 2.41-4.5 3.52-6.6-.86-2.48-2.69-3.54-4.91-5.2a70 70 0 0 1-7.81-4.58q-19.1-12.6-38.09-25.35c-.84-.56-1.59-1.27-2.43-1.95 2.45-9.06 6.23-17.47 9-26.22-.59-.75-1-1.38-1.51-1.92-3.54-3.92-7.2-7.76-10.64-11.7q-15.93-18.27-31.71-36.64a15.7 15.7 0 0 0-7.35-5c-8.47-2.7-16.89-5.6-25.34-8.42-6.43-2.15-12.88-4.26-19.3-6.49-1.52-.52-4.65-1.68-4.5-2.48a23 23 0 0 1 .9-2.79c2-4.57 4-9.14 6.11-13.64 6.07-12.81 12.22-25.59 18.31-38.41.55-1.18 1.52-3.75 1-4-3-.33-6.11-.69-9.24-1-5.25-.52-10.52-.9-15.75-1.59a10.2 10.2 0 0 0-7.61 1.77q-25.07 17.12-50.12 34.16c-1.48 1.14-2.47 1.78-3.59 2.79-3.35 1.82-5.94 3.47-8.89 5.23-8.53 5.91-17 11.94-25.44 17.92a11 11 0 0 0-1.18.68C426.57 201.6 405.33 216 383.78 230a9.33 9.33 0 0 0-4 5.67c-4.14 14-8.25 28.09-12.6 42.09q-11.58 37.63-23.4 75.21a10.32 10.32 0 0 0 .23 7.4c4.26 10.8 8.26 21.72 12.48 32.55a9.9 9.9 0 0 1 .16 7.41c-5.46 15.35-10.75 30.77-16.2 46.13a11.67 11.67 0 0 0-.37 6.62q3.54 16.6 6.77 33.3 5.36 27.31 10.53 54.67c.98 4.56 1.69 9.21 2.44 13.82" class="a" style="fill:#000;fill-opacity:.0980392" transform="matrix(.02949 0 0 .02949 10.037 18.87)"/><path d="M675.83 368.24a12.6 12.6 0 0 1-1.05 2.37c-1.44 1.94-3.06 3.74-4.5 5.69a5.37 5.37 0 0 1-3.73 2.21c-6.86 1.06-13.7 2.22-20.54 3.42-4.5.77-8.89 1.66-13.33 2.52a15 15 0 0 0-1.8.65c.82 3.27 3.19 5.52 4.77 8.2s3.6 5.14 5.09 8c-.66.5-1.1.9-1.6 1.22l-32 18.9c-7.63 4.5-7.66 4.37-16.41 5.81-10.86 1.8-21.69 3.79-32.52 5.71a4.3 4.3 0 0 0-1 .53 6.6 6.6 0 0 0-.51 1.5c-.7 7.2-1.35 14.4-2 21.6-.51 5.26-1.07 10.51-1.52 15.77-.25 2.85-.29 5.73-.47 8.59-.14 2.2.72 4.15 1.52 6.09q5 12.13 10.12 24.24c2 4.71 4.07 9.4 6.12 14.1 1.53 3.78 3 7.57 4.59 11.33 5.73 13.65 11.42 27.31 17.28 40.89a15.23 15.23 0 0 1 1.1 7.92q-1.38 13.5-2.62 27c-1.12 12.6-2.26 25.26-3.18 37.9-.4 5.4-.25 10.87-.41 16.31a12 12 0 0 0 1.39 5.21c1.62 3.74 3.24 7.49 5.06 11.13a6.07 6.07 0 0 1 .05 5.58q-7.2 16.89-14.12 33.86c-3 7.27-5.72 14.63-8.59 21.94-.21.54-.47 1.08-.66 1.48-1.57.85-2.83 0-4.1-.29-26-5.3-52-10.67-78.09-15.94a14 14 0 0 1-6.39-3c-31.5-26-63.23-51.57-95.52-76.5-3.22-2.49-6.51-4.91-10-7.54-1-5.11-2-10.44-2.93-15.78q-4.32-23.61-8.61-47.22c-1.36-7.42-3-14.68-4.4-22.1-.2-1-.3-1.81-.54-2.72-.75-4.61-1.39-9.24-2.26-13.83q-5.22-27.31-10.52-54.63-3.27-16.67-6.77-33.3a10.2 10.2 0 0 1 .37-6.62c5.4-15.36 10.73-30.78 16.2-46.13.81-3.21 1-4.21-.16-7.41-4.22-10.8-8.22-21.74-12.48-32.55a10.32 10.32 0 0 1-.23-7.4q11.81-37.56 23.4-75.21c4.3-14 8.42-28.05 12.6-42.09a8.7 8.7 0 0 1 4-5.67c21.54-14 42.79-28.38 63.44-43.67a11 11 0 0 1 1.18-.68c.06.37.14 1.44.18 1.79.22 5.13.52 10.26.73 15.39.19 5 .43 9.9.6 14.92a5.6 5.6 0 0 1-.06 1.54l-4.05 1c-.51 2.94-1 5.76-1.48 8.56q-.76 4.45-1.53 8.88a74.5 74.5 0 0 1-8.76 3.92 19 19 0 0 0-2.16 1.09c4 4 7.66 7.75 11.44 11.43 3.35 3.26 6.82 6.41 10.23 9.6a.7.7 0 0 0 .41.17c.12 0 .23-.14.48-.32-1.42-2.61-2.9-5.22-4.28-7.87s-2.57-5.25-3.82-8.38l5.87-3.79c.68-4.85 1.35-9.76 2-14.51l2.46-1.22c.27-2.34.63-4.73.8-7.11.49-6.63.95-13.25 1.31-19.89a18.24 18.24 0 0 1 3.81-10.4c5.19-6.88 10.19-13.88 15.24-20.84 1.68-2.32 3.27-4.73 4.91-7.08a44 44 0 0 1 3.48-2.72q25.11-17.06 50.23-34.2a10.24 10.24 0 0 1 7.61-1.8c5.23.7 10.5 1.07 15.75 1.59 3.12.31 6.24.67 9.23 1 .62.22-.43 2.89-1 4.07-6.08 12.81-12.24 25.59-18.3 38.41-2.14 4.5-4.12 9.07-6.11 13.63a23 23 0 0 0-.9 2.79c-.33.65 2.94 2 4.5 2.49 6.41 2.23 12.87 4.33 19.3 6.49 8.44 2.81 16.87 5.69 25.34 8.42 4.93 1.83 5.42 2.63 7.35 4.95 10.49 12.27 21.11 24.44 31.74 36.61 3.48 4 7.1 7.82 10.65 11.7.5.55 1.89 2.16 1.5 1.93-2.7 8.75-6.5 17.15-9 26.21.85.69 1.6 1.4 2.43 2q19 12.69 38.1 25.34c2.59 1.47 5.1 2.91 7.71 4.54s5.35 4.37 5 5.24c-1.11 2.09-2.26 4.38-3.52 6.6a10.1 10.1 0 0 0-1.26 5.64c.15 3.16.08 6.34.15 9.51q.18 7.47.43 14.92a5.45 5.45 0 0 1-1.64 4.5 5.2 5.2 0 0 1-1.61.7 2.9 2.9 0 0 0-.73-.5q-9.85-2.62-19.69-5.18a8 8 0 0 0-1.69 0c.07.77.14 1.21.15 1.66.1 2.48 1.5 3.6 3.83 4.28 4.61 1.36 9.27 3.22 13.92 4.91M541 157.51c-.5.28-1 .58-1.45.9a112 112 0 0 0-18 17.1 230.5 230.5 0 0 0-25.2 37 113 113 0 0 0-6.5 13.45c-3.7 9.6-1.6 17.26 6.67 23.66.78.59 1.48 1.51 3 1.11 8.29-33.28 23.95-63.5 41.48-93.22m-46 213.57c-3 6.11-5.07 11.87-5.4 18.14a21.7 21.7 0 0 0 5.05 15.52 64.2 64.2 0 0 0 22 17.06c9 4.4 18.51 7.31 28.15 9.9a15.3 15.3 0 0 0 2.7.49 5.9 5.9 0 0 0 1.6-.41c-.75-1.67-2.14-2-3.31-2.63a139 139 0 0 1-20.7-13 75.4 75.4 0 0 1-12.49-11.75 76.5 76.5 0 0 1-11.51-18.9c-2.09-4.5-3.9-9.16-6.09-14.42m59-53.75a30 30 0 0 0 3.52 0c9.29-1.15 18.57-2.36 27.85-3.56 2.09-.26 2.7-1 2.3-3a13 13 0 0 0-9.07-10.38c-11.08-3.9-21.6 3.75-24.55 11.62-.63 1.69-1.14 3.48-.05 5.32M450.94 730.09c-59.23 19.35-117.1 39.42-174.86 59.74-2.4.84-4.87 1.42-7.1 2.06-.4-.27-.58-.33-.63-.44a.74.74 0 0 1 .08-.44c20.7-43.15 41.67-86.15 61.53-129.7 2-.1 3.27 1.12 4.65 1.91 14.66 8.44 29.28 17 43.95 25.38q34.38 19.75 68.81 39.41zM271.67 675.61q-11.12 50.32-22.25 100.65a9.7 9.7 0 0 1-.69 1.66 2.2 2.2 0 0 1-.49-.24 3.8 3.8 0 0 1-.59-.67c-9.37-16.7-18.83-33.35-29.11-49.26a6 6 0 0 1 .06-.71 1.1 1.1 0 0 1 .21-.4c.9-1 1.88-1.95 2.85-2.91l49.42-48.45z" class="b" style="fill:#000;fill-opacity:.0980392" transform="matrix(.02949 0 0 .02949 10.037 18.87)"/><path d="M359.82 554.87c-13.2 3.83-26.27 8.23-39.16 13a654 654 0 0 0-80.1 36q-29.64 15.74-57.89 33.82C161.52 651.23 141 665.57 121.19 681q-13.9 10.9-26.84 22.94c-4.55 4.22-9.16 8.32-14.64 11.37a36.5 36.5 0 0 1-13.17 4.59c-5.4.65-10.25-1-13.3-5.89a28.8 28.8 0 0 1-2.94-6.59A72.9 72.9 0 0 1 47 686a89.3 89.3 0 0 1 5.56-31.5 195.6 195.6 0 0 1 19.23-37.92 356 356 0 0 1 32.4-42.48c9.9-11.25 20.2-22.09 31.05-32.4 10.64-10.09 21.67-19.72 33-29 21.17-17.37 43.64-32.93 66.44-48 11.09-7.33 22.1-14.77 33.13-22.19.84-.56 1.58-1.27 3-2.44a112 112 0 0 0-14.92 3A277.3 277.3 0 0 0 205.1 462c-8.82 4.31-17.53 8.84-26.16 13.5-5.45 2.93-10.61 6.38-16 9.45a159 159 0 0 1-32.64 14.4 12.83 12.83 0 0 1-15.77-7.07 32.25 32.25 0 0 1-2.1-18.18 86.4 86.4 0 0 1 7.49-22.72 213.5 213.5 0 0 1 26.85-41.88 285 285 0 0 1 45.68-44.5c15-11.78 30.6-22.59 46.53-33.05q19.3-12.72 38.65-25.35c5.06-3.3 10.2-6.49 15.3-9.78a20 20 0 0 0 2.45-1.67l1.43-.95c-.13-.14-.69 0-.83-.08-.59.21-1 .24-1.61.43a31 31 0 0 0-3.06.79c-6.64 2-13.23 4.23-19.86 6.26a465 465 0 0 0-46.18 17.4c-7.2 3.07-14.4 6.3-21.64 9.25a136 136 0 0 1-15 5.19c-8 2.18-14.65-.9-18-8.17a28.45 28.45 0 0 1-2.13-16 99.3 99.3 0 0 1 12-34.92c6.5-11.79 13.89-23 21.52-34.1 3.23-4.72 7-9.09 10.67-13.5 14.85-17.81 31.32-34 48.15-49.9 13.68-13 29.19-23.4 45.3-33a582 582 0 0 1 59.4-31 738 738 0 0 1 89-33.3c16.6-5 33.3-9.64 50.22-13.61 14.53-3.4 29.14-6.51 43.89-8.83 9-1.4 17.87-2.93 26.82-4.21q14.13-2 28.29-3.6c7.64-.9 15.3-1.43 23-2.09 9.77-.84 19.54-1.67 29.33-2.43q7.89-.62 15.82-1c8.9-.44 17.82-.59 26.7-1.24 14-1 28.08-.78 42.13-.84 5.89 0 11.79.07 17.67.38 5.4.29 10.8.9 16.2 1.46 5.24.56 10.49 1.12 15.7 2 18.34 3 36.5 6.55 53.9 13.38a105.4 105.4 0 0 1 31.93 19.48c6.3 5.61 10.18 12.6 10.62 21.3a44.6 44.6 0 0 1-2.45 17.81 34.5 34.5 0 0 1-9.9 14.4c-7.65 6.75-16.39 11.84-25.2 16.77-12.81 7.14-26.1 13.26-39.36 19.51-16.12 7.61-32.07 15.53-47.56 24.3a77.4 77.4 0 0 0-17.6 13.46A106.6 106.6 0 0 0 731.44 222c-3.29 5.1-4.89 10.7-5.91 16.51-.63 3.6.3 7.2 1.56 10.64 2.85 7.76 8 13.78 14.55 18.65a76.3 76.3 0 0 0 15.69 9 265.4 265.4 0 0 0 46.15 14.47c10.91 2.43 21.76 5 32.2 9a160.5 160.5 0 0 1 29.56 14.67 73 73 0 0 1 8.5 6.76c2.94 2.6 5.7 5.4 8.52 8.1a35.72 35.72 0 0 1 10.5 20.63 38.6 38.6 0 0 1 0 9.49 58 58 0 0 1-3 13.69 119.5 119.5 0 0 1-14.25 28.72c-5.1 7.35-10.32 14.54-16.61 20.91-3.49 3.55-7.11 7-10.9 10.23a248.8 248.8 0 0 1-44.25 29.81C776.42 478 747.57 489 717.9 498.06c-18.48 5.63-37.23 10.25-56.13 14.17-10.92 2.28-21.95 4-33 5.83q-14.73 2.38-29.55 4.26c-7 .9-14.11 1.42-21.17 2.15-2.55.26-5.09.62-7.64.9-2-4.7-4.13-9.39-6.12-14.1q-5.1-12.11-10.12-24.24c-.8-1.94-1.65-3.89-1.52-6.09.18-2.86.23-5.74.47-8.59.45-5.26 1-10.51 1.52-15.77.69-7.2 1.33-14.4 2-21.6a6.2 6.2 0 0 1 .5-1.5 4.7 4.7 0 0 1 1-.53c10.8-1.92 21.66-3.92 32.53-5.71 8.74-1.44 8.77-1.32 16.4-5.81q16-9.42 32-18.9c.5-.31.9-.72 1.6-1.22-1.46-2.88-3.49-5.32-5.08-8s-4-4.93-4.77-8.2a14 14 0 0 1 1.8-.65c4.43-.9 8.87-1.75 13.33-2.52 6.84-1.2 13.68-2.36 20.53-3.42a5.3 5.3 0 0 0 3.73-2.21c1.43-2 3-3.75 4.5-5.69a12.2 12.2 0 0 0 1.09-2.38l4.08-5.26a4.24 4.24 0 0 0 3.24-5.21q-.25-7.44-.43-14.92c-.07-3.17 0-6.34-.15-9.51a10 10 0 0 1 1.26-5.63c1.26-2.23 2.41-4.5 3.52-6.6-.86-2.48-2.69-3.54-4.91-5.2a70 70 0 0 1-7.81-4.58q-19.1-12.6-38.09-25.35c-.84-.56-1.59-1.27-2.43-1.95 2.45-9.06 6.23-17.47 9-26.22-.59-.75-1-1.38-1.51-1.92-3.54-3.92-7.2-7.76-10.64-11.7q-15.93-18.27-31.71-36.64a15.7 15.7 0 0 0-7.35-5c-8.47-2.7-16.89-5.6-25.34-8.42-6.43-2.15-12.88-4.26-19.3-6.49-1.52-.52-4.65-1.68-4.5-2.48a23 23 0 0 1 .9-2.79c2-4.57 4-9.14 6.11-13.64 6.07-12.81 12.22-25.59 18.31-38.41.55-1.18 1.52-3.75 1-4-3-.33-6.11-.69-9.24-1-5.25-.52-10.52-.9-15.75-1.59a10.2 10.2 0 0 0-7.61 1.77q-25.07 17.12-50.12 34.16c-1.48 1.14-2.47 1.78-3.59 2.79-3.35 1.82-5.94 3.47-8.89 5.23-8.53 5.91-17 11.94-25.44 17.92a11 11 0 0 0-1.18.68C426.57 201.6 405.33 216 383.78 230a9.33 9.33 0 0 0-4 5.67c-4.14 14-8.25 28.09-12.6 42.09q-11.58 37.63-23.4 75.21a10.32 10.32 0 0 0 .23 7.4c4.26 10.8 8.26 21.72 12.48 32.55a9.9 9.9 0 0 1 .16 7.41c-5.46 15.35-10.75 30.77-16.2 46.13a11.67 11.67 0 0 0-.37 6.62q3.54 16.6 6.77 33.3 5.36 27.31 10.53 54.67c.98 4.56 1.69 9.21 2.44 13.82" class="a" style="fill:#ffbd42" transform="matrix(.02949 0 0 .02949 10.296 18.053)"/><path d="M675.83 368.24a12.6 12.6 0 0 1-1.05 2.37c-1.44 1.94-3.06 3.74-4.5 5.69a5.37 5.37 0 0 1-3.73 2.21c-6.86 1.06-13.7 2.22-20.54 3.42-4.5.77-8.89 1.66-13.33 2.52a15 15 0 0 0-1.8.65c.82 3.27 3.19 5.52 4.77 8.2s3.6 5.14 5.09 8c-.66.5-1.1.9-1.6 1.22l-32 18.9c-7.63 4.5-7.66 4.37-16.41 5.81-10.86 1.8-21.69 3.79-32.52 5.71a4.3 4.3 0 0 0-1 .53 6.6 6.6 0 0 0-.51 1.5c-.7 7.2-1.35 14.4-2 21.6-.51 5.26-1.07 10.51-1.52 15.77-.25 2.85-.29 5.73-.47 8.59-.14 2.2.72 4.15 1.52 6.09q5 12.13 10.12 24.24c2 4.71 4.07 9.4 6.12 14.1 1.53 3.78 3 7.57 4.59 11.33 5.73 13.65 11.42 27.31 17.28 40.89a15.23 15.23 0 0 1 1.1 7.92q-1.38 13.5-2.62 27c-1.12 12.6-2.26 25.26-3.18 37.9-.4 5.4-.25 10.87-.41 16.31a12 12 0 0 0 1.39 5.21c1.62 3.74 3.24 7.49 5.06 11.13a6.07 6.07 0 0 1 .05 5.58q-7.2 16.89-14.12 33.86c-3 7.27-5.72 14.63-8.59 21.94-.21.54-.47 1.08-.66 1.48-1.57.85-2.83 0-4.1-.29-26-5.3-52-10.67-78.09-15.94a14 14 0 0 1-6.39-3c-31.5-26-63.23-51.57-95.52-76.5-3.22-2.49-6.51-4.91-10-7.54-1-5.11-2-10.44-2.93-15.78q-4.32-23.61-8.61-47.22c-1.36-7.42-3-14.68-4.4-22.1-.2-1-.3-1.81-.54-2.72-.75-4.61-1.39-9.24-2.26-13.83q-5.22-27.31-10.52-54.63-3.27-16.67-6.77-33.3a10.2 10.2 0 0 1 .37-6.62c5.4-15.36 10.73-30.78 16.2-46.13.81-3.21 1-4.21-.16-7.41-4.22-10.8-8.22-21.74-12.48-32.55a10.32 10.32 0 0 1-.23-7.4q11.81-37.56 23.4-75.21c4.3-14 8.42-28.05 12.6-42.09a8.7 8.7 0 0 1 4-5.67c21.54-14 42.79-28.38 63.44-43.67a11 11 0 0 1 1.18-.68c.06.37.14 1.44.18 1.79.22 5.13.52 10.26.73 15.39.19 5 .43 9.9.6 14.92a5.6 5.6 0 0 1-.06 1.54l-4.05 1c-.51 2.94-1 5.76-1.48 8.56q-.76 4.45-1.53 8.88a74.5 74.5 0 0 1-8.76 3.92 19 19 0 0 0-2.16 1.09c4 4 7.66 7.75 11.44 11.43 3.35 3.26 6.82 6.41 10.23 9.6a.7.7 0 0 0 .41.17c.12 0 .23-.14.48-.32-1.42-2.61-2.9-5.22-4.28-7.87s-2.57-5.25-3.82-8.38l5.87-3.79c.68-4.85 1.35-9.76 2-14.51l2.46-1.22c.27-2.34.63-4.73.8-7.11.49-6.63.95-13.25 1.31-19.89a18.24 18.24 0 0 1 3.81-10.4c5.19-6.88 10.19-13.88 15.24-20.84 1.68-2.32 3.27-4.73 4.91-7.08a44 44 0 0 1 3.48-2.72q25.11-17.06 50.23-34.2a10.24 10.24 0 0 1 7.61-1.8c5.23.7 10.5 1.07 15.75 1.59 3.12.31 6.24.67 9.23 1 .62.22-.43 2.89-1 4.07-6.08 12.81-12.24 25.59-18.3 38.41-2.14 4.5-4.12 9.07-6.11 13.63a23 23 0 0 0-.9 2.79c-.33.65 2.94 2 4.5 2.49 6.41 2.23 12.87 4.33 19.3 6.49 8.44 2.81 16.87 5.69 25.34 8.42 4.93 1.83 5.42 2.63 7.35 4.95 10.49 12.27 21.11 24.44 31.74 36.61 3.48 4 7.1 7.82 10.65 11.7.5.55 1.89 2.16 1.5 1.93-2.7 8.75-6.5 17.15-9 26.21.85.69 1.6 1.4 2.43 2q19 12.69 38.1 25.34c2.59 1.47 5.1 2.91 7.71 4.54s5.35 4.37 5 5.24c-1.11 2.09-2.26 4.38-3.52 6.6a10.1 10.1 0 0 0-1.26 5.64c.15 3.16.08 6.34.15 9.51q.18 7.47.43 14.92a5.45 5.45 0 0 1-1.64 4.5 5.2 5.2 0 0 1-1.61.7 2.9 2.9 0 0 0-.73-.5q-9.85-2.62-19.69-5.18a8 8 0 0 0-1.69 0c.07.77.14 1.21.15 1.66.1 2.48 1.5 3.6 3.83 4.28 4.61 1.36 9.27 3.22 13.92 4.91M541 157.51c-.5.28-1 .58-1.45.9a112 112 0 0 0-18 17.1 230.5 230.5 0 0 0-25.2 37 113 113 0 0 0-6.5 13.45c-3.7 9.6-1.6 17.26 6.67 23.66.78.59 1.48 1.51 3 1.11 8.29-33.28 23.95-63.5 41.48-93.22m-46 213.57c-3 6.11-5.07 11.87-5.4 18.14a21.7 21.7 0 0 0 5.05 15.52 64.2 64.2 0 0 0 22 17.06c9 4.4 18.51 7.31 28.15 9.9a15.3 15.3 0 0 0 2.7.49 5.9 5.9 0 0 0 1.6-.41c-.75-1.67-2.14-2-3.31-2.63a139 139 0 0 1-20.7-13 75.4 75.4 0 0 1-12.49-11.75 76.5 76.5 0 0 1-11.51-18.9c-2.09-4.5-3.9-9.16-6.09-14.42m59-53.75a30 30 0 0 0 3.52 0c9.29-1.15 18.57-2.36 27.85-3.56 2.09-.26 2.7-1 2.3-3a13 13 0 0 0-9.07-10.38c-11.08-3.9-21.6 3.75-24.55 11.62-.63 1.69-1.14 3.48-.05 5.32M450.94 730.09c-59.23 19.35-117.1 39.42-174.86 59.74-2.4.84-4.87 1.42-7.1 2.06-.4-.27-.58-.33-.63-.44a.74.74 0 0 1 .08-.44c20.7-43.15 41.67-86.15 61.53-129.7 2-.1 3.27 1.12 4.65 1.91 14.66 8.44 29.28 17 43.95 25.38q34.38 19.75 68.81 39.41zM271.67 675.61q-11.12 50.32-22.25 100.65a9.7 9.7 0 0 1-.69 1.66 2.2 2.2 0 0 1-.49-.24 3.8 3.8 0 0 1-.59-.67c-9.37-16.7-18.83-33.35-29.11-49.26a6 6 0 0 1 .06-.71 1.1 1.1 0 0 1 .21-.4c.9-1 1.88-1.95 2.85-2.91l49.42-48.45z" class="b" style="fill:#169390" transform="matrix(.02949 0 0 .02949 10.296 18.053)"/></svg>